<?xml version="1.0" encoding="UTF-8" standalone="no"?>
<!-- Created with Inkscape (http://www.inkscape.org/) -->

<svg
   width="99.699997mm"
   height="174.8mm"
   viewBox="0 0 99.699997 174.80001"
   version="1.1"
   id="svg5"
   inkscape:version="1.1.2 (0a00cf5339, 2022-02-04, custom)"
   sodipodi:docname="switch-panel.svg"
   xmlns:inkscape="http://www.inkscape.org/namespaces/inkscape"
   xmlns:sodipodi="http://sodipodi.sourceforge.net/DTD/sodipodi-0.dtd"
   xmlns="http://www.w3.org/2000/svg"
   xmlns:svg="http://www.w3.org/2000/svg">
  <sodipodi:namedview
     id="namedview7"
     pagecolor="#ffffff"
     bordercolor="#666666"
     borderopacity="1.0"
     inkscape:pageshadow="2"
     inkscape:pageopacity="0.0"
     inkscape:pagecheckerboard="0"
     inkscape:document-units="mm"
     showgrid="false"
     fit-margin-top="0"
     fit-margin-left="0"
     fit-margin-right="0"
     fit-margin-bottom="0"
     inkscape:zoom="1.0998546"
     inkscape:cx="141.38232"
     inkscape:cy="267.30806"
     inkscape:window-width="1920"
     inkscape:window-height="1129"
     inkscape:window-x="-8"
     inkscape:window-y="-8"
     inkscape:window-maximized="1"
     inkscape:current-layer="layer1" />
  <defs
     id="defs2" />
  <g
     inkscape:label="Layer 1"
     inkscape:groupmode="layer"
     id="layer1"
     transform="translate(-64.657094,-53.167375)">
    <path
       id="rect1026"
       style="fill:#000000;stroke:#000000;stroke-width:0.712777;stroke-linejoin:round"
       d="M 0.35546875 0.35546875 L 0.35546875 660.30469 L 376.46289 660.30469 L 376.46289 0.35546875 L 0.35546875 0.35546875 z M 20.03125 10.9375 A 9.0936484 9.0936472 0 0 1 29.125 20.03125 A 9.0936484 9.0936472 0 0 1 20.03125 29.125 A 9.0936484 9.0936472 0 0 1 10.9375 20.03125 A 9.0936484 9.0936472 0 0 1 20.03125 10.9375 z M 356.78711 10.9375 A 9.0936485 9.0936473 0 0 1 365.88086 20.03125 A 9.0936485 9.0936473 0 0 1 356.78711 29.125 A 9.0936485 9.0936473 0 0 1 347.69336 20.03125 A 9.0936485 9.0936473 0 0 1 356.78711 10.9375 z M 131.7168 51.128906 A 22.268991 22.268993 0 0 1 153.98633 73.398438 A 22.268991 22.268993 0 0 1 131.7168 95.667969 A 22.268991 22.268993 0 0 1 109.44727 73.398438 A 22.268991 22.268993 0 0 1 131.7168 51.128906 z M 264 51.128906 A 22.268991 22.268993 0 0 1 286.26953 73.398438 A 22.268991 22.268993 0 0 1 264 95.667969 A 22.268991 22.268993 0 0 1 241.73047 73.398438 A 22.268991 22.268993 0 0 1 264 51.128906 z M 131.7168 124.52734 A 22.268991 22.268993 0 0 1 153.98633 146.79688 A 22.268991 22.268993 0 0 1 131.7168 169.06641 A 22.268991 22.268993 0 0 1 109.44727 146.79688 A 22.268991 22.268993 0 0 1 131.7168 124.52734 z M 264 124.52734 A 22.268991 22.268993 0 0 1 286.26953 146.79688 A 22.268991 22.268993 0 0 1 264 169.06641 A 22.268991 22.268993 0 0 1 241.73047 146.79688 A 22.268991 22.268993 0 0 1 264 124.52734 z M 131.7168 197.92578 A 22.268991 22.268993 0 0 1 153.98633 220.19531 A 22.268991 22.268993 0 0 1 131.7168 242.46484 A 22.268991 22.268993 0 0 1 109.44727 220.19531 A 22.268991 22.268993 0 0 1 131.7168 197.92578 z M 264 197.92578 A 22.268991 22.268993 0 0 1 286.26953 220.19531 A 22.268991 22.268993 0 0 1 264 242.46484 A 22.268991 22.268993 0 0 1 241.73047 220.19531 A 22.268991 22.268993 0 0 1 264 197.92578 z M 131.7168 271.32422 A 22.268991 22.268993 0 0 1 153.98633 293.59375 A 22.268991 22.268993 0 0 1 131.7168 315.86328 A 22.268991 22.268993 0 0 1 109.44727 293.59375 A 22.268991 22.268993 0 0 1 131.7168 271.32422 z M 264 271.32422 A 22.268991 22.268993 0 0 1 286.26953 293.59375 A 22.268991 22.268993 0 0 1 264 315.86328 A 22.268991 22.268993 0 0 1 241.73047 293.59375 A 22.268991 22.268993 0 0 1 264 271.32422 z M 131.7168 344.72266 A 22.268991 22.268993 0 0 1 153.98633 366.99219 A 22.268991 22.268993 0 0 1 131.7168 389.26172 A 22.268991 22.268993 0 0 1 109.44727 366.99219 A 22.268991 22.268993 0 0 1 131.7168 344.72266 z M 264 344.72266 A 22.268991 22.268993 0 0 1 286.26953 366.99219 A 22.268991 22.268993 0 0 1 264 389.26172 A 22.268991 22.268993 0 0 1 241.73047 366.99219 A 22.268991 22.268993 0 0 1 264 344.72266 z M 131.7168 418.12109 A 22.268991 22.268993 0 0 1 153.98633 440.39062 A 22.268991 22.268993 0 0 1 131.7168 462.66016 A 22.268991 22.268993 0 0 1 109.44727 440.39062 A 22.268991 22.268993 0 0 1 131.7168 418.12109 z M 264 418.12109 A 22.268991 22.268993 0 0 1 286.26953 440.39062 A 22.268991 22.268993 0 0 1 264 462.66016 A 22.268991 22.268993 0 0 1 241.73047 440.39062 A 22.268991 22.268993 0 0 1 264 418.12109 z M 131.7168 491.51953 A 22.268991 22.268993 0 0 1 153.98633 513.78906 A 22.268991 22.268993 0 0 1 131.7168 536.05859 A 22.268991 22.268993 0 0 1 109.44727 513.78906 A 22.268991 22.268993 0 0 1 131.7168 491.51953 z M 264 491.51953 A 22.268991 22.268993 0 0 1 286.26953 513.78906 A 22.268991 22.268993 0 0 1 264 536.05859 A 22.268991 22.268993 0 0 1 241.73047 513.78906 A 22.268991 22.268993 0 0 1 264 491.51953 z M 131.7168 564.91797 A 22.268991 22.268993 0 0 1 153.98633 587.1875 A 22.268991 22.268993 0 0 1 131.7168 609.45703 A 22.268991 22.268993 0 0 1 109.44727 587.1875 A 22.268991 22.268993 0 0 1 131.7168 564.91797 z M 264 564.91797 A 22.268991 22.268993 0 0 1 286.26953 587.1875 A 22.268991 22.268993 0 0 1 264 609.45703 A 22.268991 22.268993 0 0 1 241.73047 587.1875 A 22.268991 22.268993 0 0 1 264 564.91797 z M 20.03125 631.53711 A 9.0936487 9.0936475 0 0 1 29.125 640.63086 A 9.0936487 9.0936475 0 0 1 20.03125 649.72266 A 9.0936487 9.0936475 0 0 1 10.9375 640.63086 A 9.0936487 9.0936475 0 0 1 20.03125 631.53711 z M 356.78711 631.53711 A 9.0936486 9.0936474 0 0 1 365.88086 640.63086 A 9.0936486 9.0936474 0 0 1 356.78711 649.72266 A 9.0936486 9.0936474 0 0 1 347.69336 640.63086 A 9.0936486 9.0936474 0 0 1 356.78711 631.53711 z "
       transform="matrix(0.26458333,0,0,0.26458333,64.657094,53.167375)" />
  </g>
</svg>
